<svg viewBox="0 0 128 128" xmlns="http://www.w3.org/2000/svg">
  <path fill="#181717" d="M64 0C28.656 0 0 28.656 0 64c0 28.313 18.375 52.25 43.906 60.688 3.211.594 4.375-1.406 4.375-3.125v-10.938c-17.844 3.875-21.594-8.656-21.594-8.656-2.906-7.406-7.094-9.375-7.094-9.375-5.813-3.969.406-3.969.406-3.969 6.406.406 9.813 6.594 9.813 6.594 5.719 9.813 14.969 6.969 18.594 5.25.594-4.094 2.25-6.969 4.031-8.563-14.125-1.563-29-7.094-29-31.094 0-6.875 2.438-12.5 6.406-16.906-.625-1.563-2.75-7.875.625-16.406 0 0 5.219-1.688 17.125 6.406 4.969-1.375 10.281-2.063 15.594-2.063 5.313 0 10.625.688 15.594 2.063 11.906-8.094 17.125-6.406 17.125-6.406 3.375 8.531 1.25 14.844.625 16.406 3.969 4.406 6.406 10.031 6.406 16.906 0 24-14.875 29.531-29 31.094 2.313 1.969 4.375 5.844 4.375 11.75v17.438c0 1.719 1.219 3.719 4.406 3.125C109.625 116.25 128 92.313 128 64c0-35.344-28.656-64-64-64z"/>
</svg>