<svg viewBox="0 0 128 128" xmlns="http://www.w3.org/2000/svg">
  <rect x="11.06" y="11.06" width="105.88" height="105.88" fill="#F7DF1E"/>
  <path d="M56.621 76.811c0 10.668 5.629 17.32 14.304 17.32 6.925 0 11.05-3.467 12.809-8.051h7.704c-2.129 8.715-8.847 13.504-20.513 13.504-14.688 0-23.336-9.66-23.336-24.625 0-14.965 8.648-24.625 23.336-24.625 11.666 0 18.384 4.789 20.513 13.504h-7.704c-1.759-4.584-5.884-8.051-12.809-8.051-8.675 0-14.304 6.652-14.304 17.32z"/>
  <path d="M36.937 64.35c0-14.965 8.648-24.625 23.336-24.625 14.688 0 23.336 9.66 23.336 24.625 0 14.966-8.648 24.625-23.336 24.625-14.688 0-23.336-9.659-23.336-24.625zm39.664 0c0-10.668-5.629-17.32-14.304-17.32-8.675 0-14.304 6.652-14.304 17.32 0 10.668 5.629 17.32 14.304 17.32 8.675 0 14.304-6.652 14.304-17.32z"/>
</svg>