<svg viewBox="0 0 128 128" xmlns="http://www.w3.org/2000/svg">
  <defs>
    <linearGradient id="kicadGrad" x1="0%" y1="0%" x2="100%" y2="100%">
      <stop offset="0%" style="stop-color:#38bdf8;stop-opacity:1" />
      <stop offset="100%" style="stop-color:#0284c7;stop-opacity:1" />
    </linearGradient>
  </defs>
  <path fill="url(#kicadGrad)" d="M64 10c-29.824 0-54 24.176-54 54 0 29.824 24.176 54 54 54 29.824 0 54-24.176 54-54 0-29.824-24.176-54-54-54zm0 8c25.412 0 46 20.588 46 46s-20.588 46-46 46-46-20.588-46-46 20.588-46 46-46z"/>
  <circle cx="64" cy="40" r="5" fill="url(#kicadGrad)"/>
  <circle cx="50" cy="60" r="5" fill="url(#kicadGrad)"/>
  <circle cx="78" cy="60" r="5" fill="url(#kicadGrad)"/>
  <circle cx="64" cy="90" r="5" fill="url(#kicadGrad)"/>
  <line x1="64" y1="45" x2="64" y2="85" stroke="url(#kicadGrad)" stroke-width="2"/>
  <line x1="55" y1="60" x2="73" y2="60" stroke="url(#kicadGrad)" stroke-width="2"/>
</svg>