<svg viewBox="0 0 128 128" xmlns="http://www.w3.org/2000/svg">
  <path fill="#0078D4" d="M93.915 13.686L12.77 50.697c-2.165 1.089-3.489 3.351-3.489 5.815v23.976c0 2.464 1.324 4.726 3.489 5.815L93.915 114.314c1.081.544 2.263.816 3.452.816 2.465 0 4.733-1.324 5.976-3.489l19.176-32.232c1.089-1.814 1.633-3.977 1.633-6.141V54.845c0-2.163-.544-4.327-1.633-6.141L103.343 16.472c-1.243-2.165-3.51-3.489-5.976-3.489-1.189 0-2.371.272-3.452.816z"/>
  <path fill="#007ACC" d="M93.915 13.686L12.77 50.697c-2.165 1.089-3.489 3.351-3.489 5.815v23.976c0 2.464 1.324 4.726 3.489 5.815L93.915 114.314c1.081.544 2.263.816 3.452.816 2.465 0 4.733-1.324 5.976-3.489l19.176-32.232c1.089-1.814 1.633-3.977 1.633-6.141V54.845c0-2.163-.544-4.327-1.633-6.141L103.343 16.472c-1.243-2.165-3.51-3.489-5.976-3.489-1.189 0-2.371.272-3.452.816z"/>
  <path fill="#FFF" d="M48 43l28 21-28 21V43z" opacity="0.8"/>
</svg>